<?xml version="1.0" encoding="UTF-8"?>
<svg id="Calque_1" data-name="Calque 1" xmlns="http://www.w3.org/2000/svg" viewBox="0 0 872.38 357.68">
  <path d="M570.72,52.51c63.59-6.31,85.67,78.41,88.25,127.17,2.76,52.24-9.36,153.36-77.51,158.58-61.21,4.68-84.08-71.1-86.58-119.49-2.67-51.87,8.18-159.54,75.83-166.25ZM536.91,275.21c23.87-57.69,51.23-113.84,76.85-170.75-5.88-27.93-35.82-51.43-59.81-24.71-30.89,34.41-29.62,135.25-21.72,178.65l4.67,16.81ZM618.94,122.22c-25.13,56.15-50.86,112.3-77.81,167.67,14.35,39.9,49.71,46.13,69.67,5.7,19.87-40.23,20.89-124.08,10.63-167.39-.38-1.61-.68-5.51-2.5-5.98Z"/>
  <path d="M402.92,19.22v313.5c0,.16,1.73,2.5-.5,2.5h-50.5V19.22h51Z"/>
  <path d="M732.92,185.2c-12.14-9.67-25.88-17.46-36.02-29.46-27.22-32.19-14.04-88.18,27.24-100.81,42.15-12.89,88.37,9.5,84.82,57.82-2.05,27.95-24.55,46.98-45.02,62.96,14.67,10.39,30.27,20.09,41.95,34.03,37.19,44.38,16.26,116.86-42.74,127.2-74.96,13.13-114.93-64.65-65.26-121.26,9.89-11.27,23.01-21.86,35.03-30.49ZM739.68,65.48c-13.14,1.78-24.52,14.14-28.8,26.2-13.07,36.88,12.11,60.42,41.39,77.39,17.77-13.81,32.17-34.22,33.63-57.36,1.81-28.65-16.43-50.27-46.23-46.23ZM744.6,192.43c-2.54.37-20.49,17.64-23.19,20.77-23.64,27.44-32.59,83.16,3.85,103.18,55.67,30.59,95.93-48.92,56.64-95.64-4.28-5.08-32.29-29.04-37.29-28.32Z"/>
  <polygon points="72.42 45.22 134.93 311.22 200.97 45.26 209.92 45.22 140.01 332.81 138.96 334.76 116.53 335.28 47.92 45.22 72.42 45.22"/>
  <path d="M256.74,149.48c83.4-2.4,87.56,159.96,22.44,184.49-101.63,38.28-115.59-181.82-22.44-184.49ZM253.66,162.45c-21.94,3.72-30.57,37.72-32.72,56.28-3.23,27.79-3.15,108.51,39.51,106.53,42.35-1.96,40.09-89.02,35.18-117.26-3.86-22.19-14.01-50.3-41.97-45.55Z"/>
  <path d="M445.68,280.48c40.76-5.97,47.81,52.22,11.48,57.48-40.52,5.86-45.78-52.45-11.48-57.48Z"/>
</svg>